<svg width="15" height="17" viewBox="0 0 15 17" fill="none" xmlns="http://www.w3.org/2000/svg">
<path fill-rule="evenodd" clip-rule="evenodd" d="M7.15042 13.5657L2.26578 16.2417C1.87578 16.4444 1.39531 16.3009 1.18031 15.9175C1.1181 15.7988 1.08454 15.6671 1.08231 15.5331L1 4.3398C1 2.07839 2.5453 1.17383 4.76901 1.17383H9.99287C12.1487 1.17383 13.7619 2.01809 13.7619 4.18904L13.8442 15.5331C13.8442 15.747 13.7592 15.9522 13.608 16.1034C13.4567 16.2547 13.2515 16.3397 13.0376 16.3397C12.9012 16.3375 12.7671 16.304 12.6456 16.2417L7.73085 13.5657C7.54975 13.4678 7.33153 13.4678 7.15042 13.5657Z" stroke="white" stroke-linecap="round" stroke-linejoin="round"/>
<path d="M4.35443 6.56355H10.3622" stroke="white" stroke-linecap="round" stroke-linejoin="round"/>
</svg>
