<?xml version="1.0" standalone="no"?><!DOCTYPE svg PUBLIC "-//W3C//DTD SVG 1.1//EN" "http://www.w3.org/Graphics/SVG/1.1/DTD/svg11.dtd"><svg t="1627267895003" class="icon" viewBox="0 0 1024 1024" version="1.1" xmlns="http://www.w3.org/2000/svg" p-id="1533" xmlns:xlink="http://www.w3.org/1999/xlink" width="200" height="200"><defs><style type="text/css">@font-face { font-family: feedback-iconfont; src: url("//at.alicdn.com/t/font_1031158_1uhr8ri0pk5.eot?#iefix") format("embedded-opentype"), url("//at.alicdn.com/t/font_1031158_1uhr8ri0pk5.woff2") format("woff2"), url("//at.alicdn.com/t/font_1031158_1uhr8ri0pk5.woff") format("woff"), url("//at.alicdn.com/t/font_1031158_1uhr8ri0pk5.ttf") format("truetype"), url("//at.alicdn.com/t/font_1031158_1uhr8ri0pk5.svg#iconfont") format("svg"); }
</style></defs><path d="M435.146295 435.081343A110.066173 110.066173 0 0 0 402.318419 511.935688c0 27.964487 11.966497 55.992966 32.827876 76.854345A110.066173 110.066173 0 0 0 512.00064 621.617909a110.066173 110.066173 0 0 0 76.854345-32.827876A110.066173 110.066173 0 0 0 621.682861 511.935688a110.066173 110.066173 0 0 0-32.827876-76.854345A110.066173 110.066173 0 0 0 512.00064 402.253467a110.066173 110.066173 0 0 0-76.854345 32.827876z" fill="#ffffff" p-id="1534" data-spm-anchor-id="a313x.7781069.0.i2" class=""></path><path d="M752.546421 512.447624c0 24.188961 16.893878 41.146831 41.146831 41.146831h145.901671a445.064089 445.064089 0 0 1-124.65634 264.67075 417.611538 417.611538 0 0 1-122.544605 86.069188 413.068108 413.068108 0 0 1-139.758443 36.53941v-146.285623a39.355056 39.355056 0 0 0-41.146831-41.146831 39.355056 39.355056 0 0 0-41.146831 41.146831v145.965663a442.82437 442.82437 0 0 1-139.694451-38.84312 430.08997 430.08997 0 0 1-208.421817-208.421817 442.82437 442.82437 0 0 1-38.84312-139.694451h145.901671a39.355056 39.355056 0 0 0 41.210823-41.146831 39.355056 39.355056 0 0 0-41.146831-41.146831H83.382485a442.82437 442.82437 0 0 1 38.84312-139.694451 430.08997 430.08997 0 0 1 208.421817-208.485809 442.888362 442.888362 0 0 1 139.694451-38.84312v145.965663c0 24.252953 16.95787 41.146831 41.146831 41.146831a39.355056 39.355056 0 0 0 41.146831-41.146831v-145.901671a442.888362 442.888362 0 0 1 139.694451 38.779128 430.08997 430.08997 0 0 1 208.485809 208.485809 442.82437 442.82437 0 0 1 38.84312 139.694451h-145.965663a39.355056 39.355056 0 0 0-41.146831 41.146831z m230.0511-198.631047a512.31964 512.31964 0 0 0-109.874197-162.603573A512.31964 512.31964 0 0 0 710.119751 41.338807a505.15254 505.15254 0 0 0-198.631047-40.314936 505.15254 505.15254 0 0 0-198.567055 40.314936 512.31964 512.31964 0 0 0-162.603573 109.874197A512.255648 512.255648 0 0 0 40.379887 313.816577 505.15254 505.15254 0 0 0 0.064952 512.447624c0 68.727366 13.566296 135.534973 40.314935 198.567055 25.916744 60.856355 62.840106 115.569482 109.938189 162.603573a512.31964 512.31964 0 0 0 162.539581 109.874197c63.096074 26.812632 129.903681 40.378927 198.631047 40.378927a505.088548 505.088548 0 0 0 198.631047-40.314935 512.31964 512.31964 0 0 0 162.603573-109.874197 512.31964 512.31964 0 0 0 109.874197-162.667565c26.812632-63.032082 40.314935-129.839689 40.314936-198.567055a505.088548 505.088548 0 0 0-40.314936-198.631047z" fill="#ffffff" p-id="1535"></path></svg>