<svg width="15" height="15" viewBox="0 0 15 15" fill="none" xmlns="http://www.w3.org/2000/svg">
<path fill-rule="evenodd" clip-rule="evenodd" d="M14.1373 5.88276C13.6899 3.12938 11.3513 1.08102 8.56294 1.00038C8.43036 0.995187 8.30116 1.04292 8.20381 1.13306C8.10646 1.2232 8.04895 1.34835 8.04395 1.48093V1.48093V1.52578L8.3579 6.22235C8.3785 6.53851 8.6503 6.77884 8.9666 6.76057L13.676 6.44661C13.8087 6.4368 13.932 6.37447 14.0186 6.27344C14.1052 6.17242 14.1479 6.04103 14.1373 5.90839V5.88276Z" stroke="white" stroke-linecap="round" stroke-linejoin="round"/>
<path d="M5.30161 3.7939C5.60118 3.72461 5.90774 3.87788 6.03205 4.15912C6.06461 4.22526 6.08418 4.29704 6.08971 4.37056C6.15379 5.2804 6.28834 7.27308 6.36523 8.34951C6.37836 8.54341 6.46822 8.72409 6.61492 8.85155C6.76163 8.97902 6.95309 9.04276 7.14692 9.02868V9.02868L11.1002 8.7852C11.2767 8.7746 11.4498 8.83739 11.5784 8.95872C11.707 9.08005 11.7797 9.24913 11.7794 9.42594V9.42594C11.6192 11.8132 9.90404 13.8089 7.56801 14.3262C5.23197 14.8435 2.83458 13.7585 1.68148 11.6621C1.33725 11.0587 1.11926 10.3917 1.04074 9.70145C1.00718 9.48963 0.994302 9.27504 1.0023 9.06072C1.0091 6.51132 2.79956 4.31467 5.29521 3.7939" stroke="white" stroke-linecap="round" stroke-linejoin="round"/>
</svg>
