<svg width="14" height="15" viewBox="0 0 14 15" fill="none" xmlns="http://www.w3.org/2000/svg">
<path fill-rule="evenodd" clip-rule="evenodd" d="M1.14894 12.9919H6.85106C6.92128 12.9919 6.97872 13.0497 6.97872 13.1204V14.0194C6.97872 14.0901 6.92128 14.1479 6.85106 14.1479H0.510638C0.228191 14.1479 0 13.9183 0 13.6341V1.04696C0 0.76279 0.228191 0.533203 0.510638 0.533203H12.7234C13.0059 0.533203 13.234 0.76279 13.234 1.04696V7.2121C13.234 7.28274 13.1766 7.34054 13.1064 7.34054H12.2128C12.1426 7.34054 12.0851 7.28274 12.0851 7.2121V1.68917H1.14894V12.9919ZM10.8085 3.55155V4.32219C10.8085 4.39284 10.7511 4.45063 10.6809 4.45063H2.55319C2.48298 4.45063 2.42553 4.39284 2.42553 4.32219V3.55155C2.42553 3.48091 2.48298 3.42311 2.55319 3.42311H10.6809C10.7511 3.42311 10.8085 3.48091 10.8085 3.55155ZM2.42553 5.86348C2.42553 5.79284 2.48298 5.73504 2.55319 5.73504H7.48936C7.55957 5.73504 7.61702 5.79284 7.61702 5.86348V6.63412C7.61702 6.70476 7.55957 6.76256 7.48936 6.76256H2.55319C2.48298 6.76256 2.42553 6.70476 2.42553 6.63412V5.86348ZM10.5532 7.59742C8.64947 7.59742 7.10638 9.14995 7.10638 11.0653C7.10638 12.9807 8.64947 14.5332 10.5532 14.5332C12.4569 14.5332 14 12.9807 14 11.0653C14 9.14995 12.4569 7.59742 10.5532 7.59742ZM10.5532 13.5057C11.2011 13.5057 11.8106 13.252 12.2686 12.7912C12.7266 12.3305 12.9787 11.7171 12.9787 11.0653C12.9787 10.4135 12.7266 9.80018 12.2686 9.3394C11.8106 8.87862 11.2011 8.62495 10.5532 8.62495C9.90532 8.62495 9.29574 8.87862 8.83777 9.3394C8.37979 9.80018 8.12766 10.4135 8.12766 11.0653C8.12766 11.7171 8.37979 12.3305 8.83777 12.7912C9.29574 13.252 9.90532 13.5057 10.5532 13.5057ZM11.9734 9.84513H11.2665C11.225 9.84513 11.1867 9.8644 11.1628 9.89811L10.1495 11.3077L9.78085 10.7956C9.75692 10.7619 9.71862 10.7426 9.67713 10.7426H8.9734C8.86968 10.7426 8.80904 10.8614 8.86968 10.9465L10.0473 12.5857C10.0984 12.6564 10.2021 12.6564 10.2532 12.5857L12.0755 10.049C12.1378 9.96394 12.0771 9.84513 11.9734 9.84513Z" fill="white"/>
</svg>
