<svg width="16" height="15" viewBox="0 0 16 15" fill="none" xmlns="http://www.w3.org/2000/svg">
<path d="M10.9157 6.8432C12.2764 6.8432 13.3794 5.7362 13.3794 4.37046C13.3794 3.00546 12.2764 1.89771 10.9157 1.89771" stroke="white" stroke-linecap="round" stroke-linejoin="round"/>
<path d="M12.0486 9.5304C12.4551 9.55815 12.8586 9.61665 13.2569 9.70515C13.8091 9.8154 14.4741 10.0426 14.7103 10.5399C14.8612 10.8586 14.8612 11.2299 14.7103 11.5486C14.4749 12.0459 13.8091 12.2731 13.2569 12.3871" stroke="white" stroke-linecap="round" stroke-linejoin="round"/>
<path fill-rule="evenodd" clip-rule="evenodd" d="M6.11189 10.0629C8.86921 10.0629 11.2245 10.4821 11.2245 12.1569C11.2245 13.8324 8.88416 14.2659 6.11189 14.2659C3.35456 14.2659 1 13.8474 1 12.1719C1 10.4964 3.33962 10.0629 6.11189 10.0629Z" stroke="white" stroke-linecap="round" stroke-linejoin="round"/>
<path fill-rule="evenodd" clip-rule="evenodd" d="M6.11191 7.67221C4.29312 7.67221 2.836 6.20896 2.836 4.38346C2.836 2.55871 4.29312 1.09546 6.11191 1.09546C7.9307 1.09546 9.38857 2.55871 9.38857 4.38346C9.38857 6.20896 7.9307 7.67221 6.11191 7.67221Z" stroke="white" stroke-linecap="round" stroke-linejoin="round"/>
</svg>
